<svg width="240" height="93" viewBox="0 0 240 93" fill="none" xmlns="http://www.w3.org/2000/svg">
<g filter="url(#filter0_d_202_10)">
<path d="M20 23.6669V10H38.8294H167.961L162.073 23.6669H49.2181V62.0926H33.7679V23.6669H20Z" fill="#7209B7"/>
<path d="M72.5262 62.0704C68.9551 62.0704 65.8857 61.3378 63.318 59.8727C60.7651 58.3928 58.7951 56.3357 57.408 53.7015C56.0356 51.0525 55.3495 47.9817 55.3495 44.4891C55.3495 40.9818 56.0356 37.911 57.408 35.2767C58.7951 32.6277 60.7651 30.5706 63.318 29.1055C65.8857 27.6256 68.9551 26.8857 72.5262 26.8857C76.0973 26.8857 79.1593 27.6256 81.7121 29.1055C84.2798 30.5706 86.2498 32.6277 87.6222 35.2767C89.0093 37.911 89.7028 40.9818 89.7028 44.4891C89.7028 47.9817 89.0093 51.0525 87.6222 53.7015C86.2498 56.3357 84.2798 58.3928 81.7121 59.8727C79.1593 61.3378 76.0973 62.0704 72.5262 62.0704ZM72.5926 53.8791C73.8911 53.8791 74.9905 53.4795 75.8907 52.6804C76.7908 51.8812 77.477 50.7713 77.9492 49.3506C78.4362 47.9299 78.6797 46.2872 78.6797 44.4225C78.6797 42.5283 78.4362 40.8708 77.9492 39.4501C77.477 38.0294 76.7908 36.9194 75.8907 36.1203C74.9905 35.3211 73.8911 34.9216 72.5926 34.9216C71.2497 34.9216 70.1134 35.3211 69.1838 36.1203C68.2689 36.9194 67.5679 38.0294 67.081 39.4501C66.6088 40.8708 66.3727 42.5283 66.3727 44.4225C66.3727 46.2872 66.6088 47.9299 67.081 49.3506C67.5679 50.7713 68.2689 51.8812 69.1838 52.6804C70.1134 53.4795 71.2497 53.8791 72.5926 53.8791Z" fill="#7209B7"/>
<path d="M95.2476 62.0926V27.9956H105.54V34.2556H105.917C106.625 32.1837 107.82 30.5484 109.503 29.3497C111.185 28.151 113.192 27.5516 115.523 27.5516C117.884 27.5516 119.906 28.1584 121.588 29.3719C123.27 30.5854 124.34 32.2133 124.798 34.2556H125.152C125.786 32.2281 127.026 30.6076 128.871 29.3941C130.715 28.1658 132.892 27.5516 135.4 27.5516C138.617 27.5516 141.229 28.5876 143.236 30.6594C145.243 32.7165 146.246 35.5431 146.246 39.1393V62.0926H135.423V41.6255C135.423 39.9236 134.987 38.6287 134.117 37.7408C133.246 36.838 132.117 36.3867 130.73 36.3867C129.239 36.3867 128.066 36.875 127.21 37.8518C126.369 38.8137 125.949 40.1086 125.949 41.7365V62.0926H115.545V41.5145C115.545 39.931 115.117 38.6805 114.262 37.763C113.406 36.8454 112.277 36.3867 110.875 36.3867C109.93 36.3867 109.097 36.616 108.374 37.0748C107.651 37.5188 107.082 38.1551 106.669 38.9839C106.271 39.8126 106.072 40.7894 106.072 41.9141V62.0926H95.2476Z" fill="#7209B7"/>
<path d="M162.538 62.6697C160.369 62.6697 158.443 62.3071 156.761 61.582C155.093 60.842 153.772 59.7321 152.798 58.2522C151.839 56.7575 151.36 54.8854 151.36 52.636C151.36 50.7417 151.692 49.1434 152.356 47.8411C153.02 46.5388 153.935 45.4807 155.1 44.6667C156.266 43.8528 157.609 43.2386 159.129 42.8242C160.649 42.3951 162.272 42.1065 163.999 41.9585C165.932 41.7809 167.489 41.5959 168.669 41.4035C169.85 41.1963 170.706 40.9078 171.237 40.5378C171.783 40.153 172.056 39.6128 172.056 38.9173V38.8063C172.056 37.6668 171.665 36.7862 170.883 36.1647C170.101 35.5431 169.045 35.2323 167.717 35.2323C166.286 35.2323 165.135 35.5431 164.264 36.1647C163.394 36.7862 162.84 37.6446 162.604 38.7397L152.621 38.3845C152.916 36.3127 153.676 34.4628 154.901 32.8349C156.141 31.1922 157.838 29.9047 159.992 28.9724C162.161 28.0252 164.766 27.5516 167.806 27.5516C169.975 27.5516 171.975 27.8106 173.804 28.3286C175.634 28.8318 177.228 29.5717 178.586 30.5484C179.943 31.5104 180.991 32.6943 181.729 34.1002C182.481 35.5061 182.858 37.1118 182.858 38.9173V62.0926H172.676V57.3421H172.41C171.805 58.4964 171.03 59.4731 170.086 60.2723C169.156 61.0714 168.057 61.6708 166.788 62.0704C165.533 62.4699 164.117 62.6697 162.538 62.6697ZM165.88 55.5662C167.046 55.5662 168.094 55.3294 169.023 54.8558C169.968 54.3823 170.72 53.7311 171.281 52.9024C171.842 52.0588 172.122 51.0821 172.122 49.9722V46.7312C171.812 46.894 171.436 47.042 170.993 47.1751C170.565 47.3083 170.093 47.4341 169.577 47.5525C169.06 47.6709 168.529 47.7745 167.983 47.8633C167.437 47.9521 166.913 48.0335 166.411 48.1075C165.393 48.2703 164.523 48.5219 163.799 48.8622C163.091 49.2026 162.545 49.6466 162.161 50.1941C161.793 50.7269 161.608 51.3633 161.608 52.1032C161.608 53.2279 162.007 54.0863 162.803 54.6782C163.615 55.2702 164.641 55.5662 165.88 55.5662ZM166.411 23.6669L172.122 10H182.858L176.479 23.6669H166.411Z" fill="#7209B7"/>
<path d="M219.159 38.4067L209.22 38.6731C209.117 37.9628 208.837 37.3338 208.379 36.7862C207.922 36.2239 207.324 35.7873 206.586 35.4765C205.863 35.1509 205.022 34.9882 204.063 34.9882C202.809 34.9882 201.739 35.2397 200.853 35.7429C199.983 36.2461 199.555 36.9268 199.569 37.7852C199.555 38.4511 199.82 39.0283 200.366 39.5167C200.927 40.005 201.923 40.3972 203.355 40.6932L209.906 41.9363C213.301 42.5875 215.824 43.6678 217.477 45.1773C219.144 46.6868 219.985 48.6846 220 51.1709C219.985 53.5091 219.292 55.544 217.919 57.2755C216.562 59.007 214.702 60.3537 212.341 61.3156C209.98 62.2627 207.28 62.7363 204.24 62.7363C199.385 62.7363 195.556 61.7374 192.752 59.7395C189.963 57.7268 188.369 55.0334 187.971 51.6592L198.662 51.3929C198.898 52.636 199.51 53.5831 200.499 54.2343C201.488 54.8854 202.75 55.211 204.284 55.211C205.671 55.211 206.8 54.952 207.671 54.4341C208.542 53.9161 208.984 53.2279 208.999 52.3696C208.984 51.6 208.645 50.9859 207.981 50.5271C207.317 50.0536 206.276 49.6836 204.86 49.4172L198.928 48.2851C195.519 47.6635 192.981 46.5166 191.313 44.8443C189.646 43.1572 188.819 41.0114 188.834 38.4067C188.819 36.1277 189.424 34.1816 190.649 32.5685C191.874 30.9406 193.615 29.6975 195.873 28.8392C198.131 27.9808 200.794 27.5516 203.864 27.5516C208.468 27.5516 212.098 28.521 214.754 30.4597C217.41 32.3835 218.879 35.0325 219.159 38.4067Z" fill="#7209B7"/>
</g>
<defs>
<filter id="filter0_d_202_10" x="0" y="0" width="240" height="92.7363" filterUnits="userSpaceOnUse" color-interpolation-filters="sRGB">
<feFlood flood-opacity="0" result="BackgroundImageFix"/>
<feColorMatrix in="SourceAlpha" type="matrix" values="0 0 0 0 0 0 0 0 0 0 0 0 0 0 0 0 0 0 127 0" result="hardAlpha"/>
<feOffset dy="10"/>
<feGaussianBlur stdDeviation="10"/>
<feComposite in2="hardAlpha" operator="out"/>
<feColorMatrix type="matrix" values="0 0 0 0 0.447059 0 0 0 0 0.0352941 0 0 0 0 0.717647 0 0 0 0.25 0"/>
<feBlend mode="normal" in2="BackgroundImageFix" result="effect1_dropShadow_202_10"/>
<feBlend mode="normal" in="SourceGraphic" in2="effect1_dropShadow_202_10" result="shape"/>
</filter>
</defs>
</svg>
