<svg width="100" height="100" viewBox="0 0 100 100" fill="none" xmlns="http://www.w3.org/2000/svg">
<g clip-path="url(#clip0_207_246)">
<path d="M50.0001 49.9999C50.0001 27.7843 83.3345 27.7843 83.3345 49.9999C83.3345 72.2156 50.0001 72.2156 50.0001 49.9999ZM16.6657 83.3343C16.6645 81.1454 17.0947 78.9777 17.9318 76.9552C18.7689 74.9327 19.9964 73.095 21.5442 71.5472C23.092 69.9994 24.9297 68.7719 26.9522 67.9348C28.9748 67.0977 31.1424 66.6675 33.3313 66.6687H49.997V83.3343C49.997 105.55 16.6626 105.55 16.6626 83.3343H16.6657ZM50.0001 -4.61885e-05V33.3343H66.6657C88.8813 33.3343 88.8813 -4.61885e-05 66.6657 -4.61885e-05H50.0001ZM16.6657 16.6656C16.6645 18.8545 17.0947 21.0222 17.9318 23.0447C18.7689 25.0672 19.9964 26.9049 21.5442 28.4527C23.092 30.0005 24.9297 31.228 26.9522 32.0651C28.9748 32.9022 31.1424 33.3324 33.3313 33.3312H49.997V-0.00317119H33.3313C31.1424 -0.00440357 28.9748 0.425824 26.9522 1.26291C24.9297 2.1 23.092 3.32754 21.5442 4.87533C19.9964 6.42312 18.7689 8.26081 17.9318 10.2833C17.0947 12.3059 16.6645 14.4735 16.6657 16.6625V16.6656ZM16.6657 49.9999C16.6645 52.1889 17.0947 54.3565 17.9318 56.3791C18.7689 58.4016 19.9964 60.2393 21.5442 61.7871C23.092 63.3349 24.9297 64.5624 26.9522 65.3995C28.9748 66.2366 31.1424 66.6668 33.3313 66.6656H49.997V33.3312H33.3313C31.1424 33.33 28.9748 33.7602 26.9522 34.5973C24.9297 35.4344 23.092 36.6619 21.5442 38.2097C19.9964 39.7575 18.7689 41.5952 17.9318 43.6177C17.0947 45.6402 16.6645 47.8079 16.6657 49.9968V49.9999Z" fill="white"/>
</g>
<defs>
<clipPath id="clip0_207_246">
<rect width="100" height="100" rx="10" fill="white"/>
</clipPath>
</defs>
</svg>
