<svg width="100" height="100" viewBox="0 0 100 100" fill="none" xmlns="http://www.w3.org/2000/svg">
<path d="M0 1.25317V98.7469H100V1.25317H0ZM4.16562 5.4188H95.8313V94.5782H4.16562V5.4188ZM34.6844 56.4626L31.3812 68.9469C31.3156 69.3063 31.1844 69.3688 30.7781 69.3688H24.6594C24.2375 69.3688 24.1719 69.2375 24.2375 68.7657L36.0687 27.3282C36.2812 26.5782 36.4094 25.9125 36.475 23.8438C36.475 23.5657 36.6219 23.4375 36.8344 23.4375H45.5594C45.8375 23.4375 45.9813 23.5032 46.0469 23.8438L59.3125 68.8313C59.3937 69.1719 59.3125 69.3688 58.9719 69.3688H52.1031C51.7438 69.3688 51.55 69.2875 51.4844 69.0094L48.0344 56.4594H34.6719L34.6844 56.4626ZM46.3062 49.6907C45.1344 45.0844 42.3844 34.9938 41.3594 30.1094H41.2781C40.4 34.975 38.1844 43.2282 36.4781 49.6907H46.3062ZM65.0563 26.5313C65.0563 23.8469 66.9125 22.2657 69.3219 22.2657C71.8625 22.2657 73.5875 23.9907 73.5875 26.5313C73.5875 29.2813 71.7969 30.7969 69.2406 30.7969C66.75 30.7969 65.0406 29.2844 65.0406 26.5313H65.0563ZM65.5281 36.0032C65.5281 35.6782 65.6594 35.5469 66 35.5469H72.5438C72.9188 35.5469 73.0469 35.6782 73.0469 36.0344V68.9282C73.0469 69.2688 72.9812 69.4 72.5594 69.4H66.1125C65.6906 69.4 65.5594 69.2032 65.5594 68.8625V36L65.5281 36.0032Z" fill="white"/>
</svg>
