<svg width="100" height="100" viewBox="0 0 100 100" fill="none" xmlns="http://www.w3.org/2000/svg">
<g clip-path="url(#clip0_207_236)">
<path d="M82.2908 1.25307H17.7065C15.38 1.25019 13.0759 1.70629 10.926 2.59525C8.77607 3.48421 6.82266 4.78856 5.17762 6.4336C3.53258 8.07864 2.22823 10.0321 1.33927 12.182C0.450306 14.3319 -0.00579515 16.636 -0.00291614 18.9624V81.0374C-0.00579515 83.3639 0.450306 85.668 1.33927 87.8179C2.22823 89.9678 3.53258 91.9212 5.17762 93.5663C6.82266 95.2113 8.77607 96.5157 10.926 97.4046C13.0759 98.2936 15.38 98.7497 17.7065 98.7468H82.2908C84.6173 98.7497 86.9214 98.2936 89.0713 97.4046C91.2212 96.5157 93.1746 95.2113 94.8197 93.5663C96.4647 91.9212 97.7691 89.9678 98.658 87.8179C99.547 85.668 100.003 83.3639 100 81.0374V18.9624C100.003 16.636 99.547 14.3319 98.658 12.182C97.7691 10.0321 96.4647 8.07864 94.8197 6.4336C93.1746 4.78856 91.2212 3.48421 89.0713 2.59525C86.9214 1.70629 84.6173 1.25019 82.2908 1.25307ZM95.7846 79.4124C95.7961 81.3994 95.4148 83.3689 94.6626 85.208C93.9104 87.0471 92.8022 88.7193 91.4016 90.1287C90.0009 91.538 88.3356 92.6566 86.5012 93.4202C84.6669 94.1838 82.6997 94.5773 80.7127 94.5781H19.2877C15.2789 94.5723 11.436 92.9772 8.60132 90.1426C5.76667 87.3079 4.17162 83.465 4.16583 79.4562V20.5406C4.17162 16.5318 5.76667 12.6888 8.60132 9.85418C11.436 7.01953 15.2789 5.42448 19.2877 5.41869H80.6627C84.673 5.41952 88.5189 7.01298 91.3546 9.8487C94.1903 12.6844 95.7838 16.5302 95.7846 20.5406V79.4124ZM39.5346 46.8749L51.2065 69.2874C51.419 69.6281 51.2908 69.9531 50.9596 69.9531H43.7002C43.2471 69.9531 43.0346 69.8406 42.8377 69.4156C40.1721 63.9156 37.4502 58.4156 34.6658 52.5062H34.5877C32.0255 58.1966 29.3825 63.8503 26.6596 69.4656C26.469 69.7906 26.2565 69.9187 25.9127 69.9187H19.0408C18.619 69.9187 18.5877 69.5781 18.8002 69.3343L30.2096 47.5874L19.1752 25.5843C18.9127 25.2437 19.1752 24.9968 19.4158 24.9968H26.5783C27.0002 24.9968 27.1658 25.0812 27.3283 25.4499C29.9875 30.9935 32.5866 36.5657 35.1252 42.1656H35.2033C37.6283 36.6656 40.3002 30.9531 42.869 25.4999C43.0815 25.1593 43.2096 24.9468 43.619 24.9468H50.3221C50.6627 24.9468 50.794 25.2093 50.5846 25.5343L39.5346 46.8749ZM53.2533 53.6624C53.2533 43.9624 59.7002 36.3749 69.9533 36.3749C70.8315 36.3749 71.2877 36.3749 72.119 36.4593V25.4249C72.119 25.1624 72.3283 24.9999 72.5408 24.9999H79.1158C79.4565 24.9999 79.5408 25.1281 79.5408 25.3249V63.5906C79.5408 64.7124 79.5408 66.1281 79.7533 67.6562C79.7533 67.9187 79.669 67.9968 79.4127 68.1312C76.0809 69.7143 72.439 70.5372 68.7502 70.5406C59.7002 70.5874 53.2533 65.0062 53.2533 53.6624ZM72.1221 42.9999C71.3525 42.7058 70.5334 42.5625 69.7096 42.5781C64.4565 42.5781 60.794 46.6281 60.794 53.3374C60.794 61.0031 64.5346 64.0781 69.2565 64.0781C70.2471 64.0781 71.3408 63.9656 72.1221 63.6249V42.9999Z" fill="white"/>
</g>
<defs>
<clipPath id="clip0_207_236">
<rect width="100" height="100" rx="10" fill="white"/>
</clipPath>
</defs>
</svg>
